<svg id="Layer_1" data-name="Layer 1" xmlns="http://www.w3.org/2000/svg" viewBox="0 0 1920 7280.01"><defs><style>.cls-1{fill:#231f20;}.cls-2{opacity:0.05;}.cls-3{fill:#fff;}.cls-4{opacity:0.09;}</style></defs><title>white charcoal website UI single</title><g id="_Group_" data-name="&lt;Group&gt;"><rect id="_Rectangle_" data-name="&lt;Rectangle&gt;" width="1920" height="6480.76"/><path id="_Compound_Path_" data-name="&lt;Compound Path&gt;" class="cls-1" d="M1920.5,6481.26H-.5V-.5h1921Zm-1920-1h1919V.5H.5Z"/></g><g id="_Group_2" data-name="&lt;Group&gt;" class="cls-2"><g id="_Group_3" data-name="&lt;Group&gt;"><path id="_Path_" data-name="&lt;Path&gt;" class="cls-3" d="M629.08,2102.55A105.55,105.55,0,0,1,566.57,2082l-267-195.83,72.21-98.46,258.18,189.33,314.51-192.19,63.67,104.19L684.25,2087A105.66,105.66,0,0,1,629.08,2102.55Z"/></g><g id="_Group_4" data-name="&lt;Group&gt;"><path id="_Path_2" data-name="&lt;Path&gt;" class="cls-3" d="M611.28,2475.35a105.6,105.6,0,0,1-74.83-30.94L-27.84,1880.12l86.34-86.34,554.05,554.05C677.31,2297,791.71,2205,902.71,2104.33c189.57-171.93,244.62-257,260.55-292.43l111.35,50.1c-35.74,79.45-130.56,188.3-289.87,332.77C864,2304.3,739.63,2403.59,676.26,2453A105.47,105.47,0,0,1,611.28,2475.35Z"/></g><g id="_Group_5" data-name="&lt;Group&gt;"><path id="_Path_3" data-name="&lt;Path&gt;" class="cls-3" d="M-93.26,3056.34l-54.61-109.21c166.79-83.39,336.64-319.53,397.62-410.25C101.83,2427.24-157,2102.71-168.34,2088.5l95.55-76c76.36,96,298,360.94,405.36,433.48,47.08,31.81,59.88,96.4,28.55,144C290.46,2697.2,104.74,2957.35-93.26,3056.34Z"/></g><g id="_Group_6" data-name="&lt;Group&gt;"><path id="_Path_4" data-name="&lt;Path&gt;" class="cls-3" d="M-80.83,2747.19l-79.47-92.71,89.06-76.34-95.27-108.89,91.89-80.4L31.54,2510.17a105,105,0,0,1,25.89,77.21,105,105,0,0,1-36.66,72.72Z"/></g><g id="_Group_7" data-name="&lt;Group&gt;"><path id="_Path_5" data-name="&lt;Path&gt;" class="cls-3" d="M119,3290,8.68,3237.68c1-2,23.51-49.48,52.69-97.69,42.9-70.88,77.59-107.33,114-118.15C210,2996.16,342.83,2887.58,484.2,2643c20.91-36.18,62.24-55.19,102.84-47.29,88.48,17.2,331.75,102.54,679,522.4l-94.1,77.82c-304.61-368.37-513.6-455.82-591-476.38C404,3019.74,239.53,3126.45,232.5,3130.91l-15,9.53h-6.07c-7.5,7.16-24.89,26.83-53.51,76.13C135.87,3254.55,119.19,3289.61,119,3290Z"/></g><g id="_Group_8" data-name="&lt;Group&gt;"><path id="_Path_6" data-name="&lt;Path&gt;" class="cls-3" d="M874.87,3307,656,3088.08,505,3239l-86.34-86.34,162.52-162.53a105.75,105.75,0,0,1,149.55,0l230.48,230.47Z"/></g><g id="_Group_9" data-name="&lt;Group&gt;"><path id="_Path_7" data-name="&lt;Path&gt;" class="cls-3" d="M1434.68,3010.37l-120.87-17.27c-1.44,10,.9,16.39.92,16.45-1.45-3.84-18.26-41.65-160.68-181.88-85.64-84.33-182.36-172-232.4-216.74a104.62,104.62,0,0,1-34.89-85.56,105.71,105.71,0,0,1,46.62-80.93c224.59-152.06,386.75-422.39,388.36-425.1l105,62.28c-7,11.74-169.6,283.43-408.12,452.28,58.83,52.88,155.82,141.55,239.26,224.78,50.94,50.82,90.88,93.7,118.72,127.44C1423.73,2943.22,1439.47,2976.9,1434.68,3010.37Z"/></g><g id="_Group_10" data-name="&lt;Group&gt;"><path id="_Path_8" data-name="&lt;Path&gt;" class="cls-3" d="M1410.64,2823.49l-194.3-178.1a105.76,105.76,0,0,1,5.82-160.87L1414,2332.65l75.79,95.74-176.79,140,180.15,165.14Z"/></g></g><g id="_Group_11" data-name="&lt;Group&gt;" class="cls-4"><g id="_Group_12" data-name="&lt;Group&gt;"><polygon id="_Path_9" data-name="&lt;Path&gt;" points="1831.4 4338.08 1796.47 4298.48 2541.02 3641.68 3312.43 4288.84 3278.5 4329.28 2541.89 3711.32 1831.4 4338.08"/></g><g id="_Group_13" data-name="&lt;Group&gt;"><polygon id="_Path_10" data-name="&lt;Path&gt;" points="2550.78 3574 1779.37 2926.83 1813.3 2886.38 2549.91 3504.36 3260.4 2877.59 3295.33 2917.19 2550.78 3574"/></g></g></svg>